<mxfile host="app.diagrams.net" modified="2024-05-22T07:38:02.244Z" agent="Mozilla/5.0 (Windows NT 10.0; Win64; x64) AppleWebKit/537.36 (KHTML, like Gecko) Chrome/124.0.0.0 Safari/537.36" etag="MP8l31xZftQdb4jTCqJf" version="24.4.4" type="device">
  <diagram name="Page-1" id="wu-lQBzKNbbnTDDUON1f">
    <mxGraphModel dx="1000" dy="538" grid="1" gridSize="10" guides="1" tooltips="1" connect="1" arrows="1" fold="1" page="1" pageScale="1" pageWidth="850" pageHeight="1100" math="0" shadow="0">
      <root>
        <mxCell id="0" />
        <mxCell id="1" parent="0" />
        <mxCell id="46MIYXv6gdJtNuSLJBxN-1" value="user" style="rounded=1;whiteSpace=wrap;html=1;" parent="1" vertex="1">
          <mxGeometry x="190" y="160" width="120" height="60" as="geometry" />
        </mxCell>
        <mxCell id="46MIYXv6gdJtNuSLJBxN-2" value="ph_number" style="ellipse;whiteSpace=wrap;html=1;" parent="1" vertex="1">
          <mxGeometry x="160" y="20" width="120" height="80" as="geometry" />
        </mxCell>
        <mxCell id="46MIYXv6gdJtNuSLJBxN-3" value="password" style="ellipse;whiteSpace=wrap;html=1;" parent="1" vertex="1">
          <mxGeometry x="330" y="50" width="120" height="80" as="geometry" />
        </mxCell>
        <mxCell id="46MIYXv6gdJtNuSLJBxN-4" value="name" style="ellipse;whiteSpace=wrap;html=1;" parent="1" vertex="1">
          <mxGeometry x="20" y="190" width="120" height="80" as="geometry" />
        </mxCell>
        <mxCell id="46MIYXv6gdJtNuSLJBxN-5" value="email" style="ellipse;whiteSpace=wrap;html=1;" parent="1" vertex="1">
          <mxGeometry x="390" y="140" width="120" height="80" as="geometry" />
        </mxCell>
        <mxCell id="46MIYXv6gdJtNuSLJBxN-6" value="age" style="ellipse;whiteSpace=wrap;html=1;" parent="1" vertex="1">
          <mxGeometry x="20" y="90" width="120" height="80" as="geometry" />
        </mxCell>
        <mxCell id="46MIYXv6gdJtNuSLJBxN-8" value="" style="endArrow=none;html=1;rounded=0;exitX=0;exitY=0.75;exitDx=0;exitDy=0;entryX=0.993;entryY=0.39;entryDx=0;entryDy=0;entryPerimeter=0;" parent="1" source="46MIYXv6gdJtNuSLJBxN-1" target="46MIYXv6gdJtNuSLJBxN-4" edge="1">
          <mxGeometry width="50" height="50" relative="1" as="geometry">
            <mxPoint x="290" y="240" as="sourcePoint" />
            <mxPoint x="340" y="190" as="targetPoint" />
          </mxGeometry>
        </mxCell>
        <mxCell id="46MIYXv6gdJtNuSLJBxN-9" value="" style="endArrow=none;html=1;rounded=0;entryX=0;entryY=0;entryDx=0;entryDy=0;exitX=1;exitY=0.5;exitDx=0;exitDy=0;" parent="1" source="46MIYXv6gdJtNuSLJBxN-6" target="46MIYXv6gdJtNuSLJBxN-1" edge="1">
          <mxGeometry width="50" height="50" relative="1" as="geometry">
            <mxPoint x="290" y="240" as="sourcePoint" />
            <mxPoint x="340" y="190" as="targetPoint" />
          </mxGeometry>
        </mxCell>
        <mxCell id="46MIYXv6gdJtNuSLJBxN-10" value="" style="endArrow=none;html=1;rounded=0;entryX=0.5;entryY=0;entryDx=0;entryDy=0;exitX=0.5;exitY=1;exitDx=0;exitDy=0;" parent="1" source="46MIYXv6gdJtNuSLJBxN-2" target="46MIYXv6gdJtNuSLJBxN-1" edge="1">
          <mxGeometry width="50" height="50" relative="1" as="geometry">
            <mxPoint x="290" y="240" as="sourcePoint" />
            <mxPoint x="340" y="190" as="targetPoint" />
          </mxGeometry>
        </mxCell>
        <mxCell id="46MIYXv6gdJtNuSLJBxN-11" value="" style="endArrow=none;html=1;rounded=0;entryX=0;entryY=1;entryDx=0;entryDy=0;exitX=1;exitY=0;exitDx=0;exitDy=0;" parent="1" source="46MIYXv6gdJtNuSLJBxN-1" target="46MIYXv6gdJtNuSLJBxN-3" edge="1">
          <mxGeometry width="50" height="50" relative="1" as="geometry">
            <mxPoint x="290" y="240" as="sourcePoint" />
            <mxPoint x="340" y="190" as="targetPoint" />
          </mxGeometry>
        </mxCell>
        <mxCell id="46MIYXv6gdJtNuSLJBxN-12" value="" style="endArrow=none;html=1;rounded=0;exitX=1;exitY=0.5;exitDx=0;exitDy=0;entryX=0;entryY=0.5;entryDx=0;entryDy=0;" parent="1" source="46MIYXv6gdJtNuSLJBxN-1" target="46MIYXv6gdJtNuSLJBxN-5" edge="1">
          <mxGeometry width="50" height="50" relative="1" as="geometry">
            <mxPoint x="290" y="240" as="sourcePoint" />
            <mxPoint x="340" y="190" as="targetPoint" />
          </mxGeometry>
        </mxCell>
        <mxCell id="46MIYXv6gdJtNuSLJBxN-13" value="account" style="rounded=1;whiteSpace=wrap;html=1;" parent="1" vertex="1">
          <mxGeometry x="680" y="150" width="120" height="60" as="geometry" />
        </mxCell>
        <mxCell id="46MIYXv6gdJtNuSLJBxN-14" value="&lt;u&gt;user_id&lt;/u&gt;" style="ellipse;whiteSpace=wrap;html=1;" parent="1" vertex="1">
          <mxGeometry x="150" y="250" width="120" height="80" as="geometry" />
        </mxCell>
        <mxCell id="46MIYXv6gdJtNuSLJBxN-15" value="" style="endArrow=none;html=1;rounded=0;entryX=0.25;entryY=1;entryDx=0;entryDy=0;exitX=0.5;exitY=0;exitDx=0;exitDy=0;" parent="1" source="46MIYXv6gdJtNuSLJBxN-14" target="46MIYXv6gdJtNuSLJBxN-1" edge="1">
          <mxGeometry width="50" height="50" relative="1" as="geometry">
            <mxPoint x="390" y="350" as="sourcePoint" />
            <mxPoint x="440" y="300" as="targetPoint" />
          </mxGeometry>
        </mxCell>
        <mxCell id="46MIYXv6gdJtNuSLJBxN-16" value="&lt;u&gt;user_id&lt;/u&gt;" style="ellipse;whiteSpace=wrap;html=1;" parent="1" vertex="1">
          <mxGeometry x="580" y="40" width="120" height="80" as="geometry" />
        </mxCell>
        <mxCell id="46MIYXv6gdJtNuSLJBxN-17" value="type" style="ellipse;whiteSpace=wrap;html=1;" parent="1" vertex="1">
          <mxGeometry x="730" y="40" width="120" height="80" as="geometry" />
        </mxCell>
        <mxCell id="46MIYXv6gdJtNuSLJBxN-18" value="" style="endArrow=none;html=1;rounded=0;entryX=1;entryY=1;entryDx=0;entryDy=0;exitX=0.25;exitY=0;exitDx=0;exitDy=0;" parent="1" source="46MIYXv6gdJtNuSLJBxN-13" target="46MIYXv6gdJtNuSLJBxN-16" edge="1">
          <mxGeometry width="50" height="50" relative="1" as="geometry">
            <mxPoint x="540" y="140" as="sourcePoint" />
            <mxPoint x="590" y="90" as="targetPoint" />
          </mxGeometry>
        </mxCell>
        <mxCell id="46MIYXv6gdJtNuSLJBxN-19" value="" style="endArrow=none;html=1;rounded=0;entryX=0.75;entryY=0;entryDx=0;entryDy=0;exitX=0.5;exitY=1;exitDx=0;exitDy=0;" parent="1" source="46MIYXv6gdJtNuSLJBxN-17" target="46MIYXv6gdJtNuSLJBxN-13" edge="1">
          <mxGeometry width="50" height="50" relative="1" as="geometry">
            <mxPoint x="540" y="140" as="sourcePoint" />
            <mxPoint x="590" y="90" as="targetPoint" />
          </mxGeometry>
        </mxCell>
        <mxCell id="46MIYXv6gdJtNuSLJBxN-20" value="wallet" style="rounded=1;whiteSpace=wrap;html=1;" parent="1" vertex="1">
          <mxGeometry x="630" y="400" width="120" height="60" as="geometry" />
        </mxCell>
        <mxCell id="46MIYXv6gdJtNuSLJBxN-21" value="credit" style="ellipse;whiteSpace=wrap;html=1;" parent="1" vertex="1">
          <mxGeometry x="520" y="300" width="120" height="80" as="geometry" />
        </mxCell>
        <mxCell id="46MIYXv6gdJtNuSLJBxN-22" value="&lt;u&gt;user_id&lt;/u&gt;" style="ellipse;whiteSpace=wrap;html=1;" parent="1" vertex="1">
          <mxGeometry x="720" y="300" width="120" height="80" as="geometry" />
        </mxCell>
        <mxCell id="46MIYXv6gdJtNuSLJBxN-23" value="" style="endArrow=none;html=1;rounded=0;entryX=0;entryY=0;entryDx=0;entryDy=0;exitX=1;exitY=1;exitDx=0;exitDy=0;" parent="1" source="46MIYXv6gdJtNuSLJBxN-21" target="46MIYXv6gdJtNuSLJBxN-20" edge="1">
          <mxGeometry width="50" height="50" relative="1" as="geometry">
            <mxPoint x="460" y="420" as="sourcePoint" />
            <mxPoint x="510" y="370" as="targetPoint" />
          </mxGeometry>
        </mxCell>
        <mxCell id="46MIYXv6gdJtNuSLJBxN-24" value="" style="endArrow=none;html=1;rounded=0;entryX=1;entryY=0;entryDx=0;entryDy=0;exitX=0.31;exitY=0.945;exitDx=0;exitDy=0;exitPerimeter=0;" parent="1" source="46MIYXv6gdJtNuSLJBxN-22" target="46MIYXv6gdJtNuSLJBxN-20" edge="1">
          <mxGeometry width="50" height="50" relative="1" as="geometry">
            <mxPoint x="460" y="420" as="sourcePoint" />
            <mxPoint x="510" y="370" as="targetPoint" />
          </mxGeometry>
        </mxCell>
        <mxCell id="46MIYXv6gdJtNuSLJBxN-25" value="bank_transaction" style="rounded=1;whiteSpace=wrap;html=1;" parent="1" vertex="1">
          <mxGeometry x="260" y="520" width="120" height="60" as="geometry" />
        </mxCell>
        <mxCell id="46MIYXv6gdJtNuSLJBxN-28" value="amount" style="ellipse;whiteSpace=wrap;html=1;" parent="1" vertex="1">
          <mxGeometry x="290" y="650" width="120" height="80" as="geometry" />
        </mxCell>
        <mxCell id="46MIYXv6gdJtNuSLJBxN-30" value="" style="endArrow=none;html=1;rounded=0;exitX=0.75;exitY=1;exitDx=0;exitDy=0;entryX=0.5;entryY=0;entryDx=0;entryDy=0;" parent="1" source="46MIYXv6gdJtNuSLJBxN-25" target="46MIYXv6gdJtNuSLJBxN-28" edge="1">
          <mxGeometry width="50" height="50" relative="1" as="geometry">
            <mxPoint x="490" y="470" as="sourcePoint" />
            <mxPoint x="540" y="420" as="targetPoint" />
          </mxGeometry>
        </mxCell>
        <mxCell id="46MIYXv6gdJtNuSLJBxN-31" value="reservation" style="rounded=1;whiteSpace=wrap;html=1;" parent="1" vertex="1">
          <mxGeometry x="270" y="900" width="120" height="60" as="geometry" />
        </mxCell>
        <mxCell id="46MIYXv6gdJtNuSLJBxN-32" value="cost" style="ellipse;whiteSpace=wrap;html=1;" parent="1" vertex="1">
          <mxGeometry x="400" y="810" width="120" height="80" as="geometry" />
        </mxCell>
        <mxCell id="QLzX7DmUl6CiqhcPxt4L-2" value="" style="triangle;whiteSpace=wrap;html=1;rotation=90;" vertex="1" parent="1">
          <mxGeometry x="300" y="990" width="60" height="80" as="geometry" />
        </mxCell>
        <mxCell id="QLzX7DmUl6CiqhcPxt4L-3" value="" style="endArrow=none;html=1;rounded=0;exitX=0.5;exitY=1;exitDx=0;exitDy=0;entryX=0;entryY=0.5;entryDx=0;entryDy=0;" edge="1" parent="1" source="46MIYXv6gdJtNuSLJBxN-31" target="QLzX7DmUl6CiqhcPxt4L-2">
          <mxGeometry width="50" height="50" relative="1" as="geometry">
            <mxPoint x="340" y="930" as="sourcePoint" />
            <mxPoint x="390" y="880" as="targetPoint" />
          </mxGeometry>
        </mxCell>
        <mxCell id="QLzX7DmUl6CiqhcPxt4L-4" value="hotel_reservation" style="rounded=1;whiteSpace=wrap;html=1;" vertex="1" parent="1">
          <mxGeometry x="190" y="1090" width="120" height="60" as="geometry" />
        </mxCell>
        <mxCell id="QLzX7DmUl6CiqhcPxt4L-5" value="transport_reservation" style="rounded=1;whiteSpace=wrap;html=1;" vertex="1" parent="1">
          <mxGeometry x="350" y="1090" width="120" height="60" as="geometry" />
        </mxCell>
        <mxCell id="QLzX7DmUl6CiqhcPxt4L-6" value="" style="endArrow=none;html=1;rounded=0;exitX=0.5;exitY=1;exitDx=0;exitDy=0;entryX=0.5;entryY=0;entryDx=0;entryDy=0;" edge="1" parent="1" source="QLzX7DmUl6CiqhcPxt4L-2" target="QLzX7DmUl6CiqhcPxt4L-4">
          <mxGeometry width="50" height="50" relative="1" as="geometry">
            <mxPoint x="340" y="930" as="sourcePoint" />
            <mxPoint x="390" y="880" as="targetPoint" />
          </mxGeometry>
        </mxCell>
        <mxCell id="QLzX7DmUl6CiqhcPxt4L-7" value="" style="endArrow=none;html=1;rounded=0;exitX=0.5;exitY=0;exitDx=0;exitDy=0;entryX=0.5;entryY=0;entryDx=0;entryDy=0;" edge="1" parent="1" source="QLzX7DmUl6CiqhcPxt4L-2" target="QLzX7DmUl6CiqhcPxt4L-5">
          <mxGeometry width="50" height="50" relative="1" as="geometry">
            <mxPoint x="340" y="930" as="sourcePoint" />
            <mxPoint x="390" y="880" as="targetPoint" />
          </mxGeometry>
        </mxCell>
        <mxCell id="QLzX7DmUl6CiqhcPxt4L-9" value="" style="endArrow=none;html=1;rounded=0;entryX=1;entryY=0;entryDx=0;entryDy=0;exitX=0;exitY=1;exitDx=0;exitDy=0;" edge="1" parent="1" source="46MIYXv6gdJtNuSLJBxN-32" target="46MIYXv6gdJtNuSLJBxN-31">
          <mxGeometry width="50" height="50" relative="1" as="geometry">
            <mxPoint x="340" y="1040" as="sourcePoint" />
            <mxPoint x="390" y="990" as="targetPoint" />
          </mxGeometry>
        </mxCell>
        <mxCell id="QLzX7DmUl6CiqhcPxt4L-10" value="user_id" style="ellipse;whiteSpace=wrap;html=1;" vertex="1" parent="1">
          <mxGeometry x="150" y="810" width="120" height="80" as="geometry" />
        </mxCell>
        <mxCell id="QLzX7DmUl6CiqhcPxt4L-11" value="" style="endArrow=none;html=1;rounded=0;exitX=1;exitY=1;exitDx=0;exitDy=0;entryX=0;entryY=0;entryDx=0;entryDy=0;" edge="1" parent="1" source="QLzX7DmUl6CiqhcPxt4L-10" target="46MIYXv6gdJtNuSLJBxN-31">
          <mxGeometry width="50" height="50" relative="1" as="geometry">
            <mxPoint x="340" y="940" as="sourcePoint" />
            <mxPoint x="390" y="890" as="targetPoint" />
          </mxGeometry>
        </mxCell>
        <mxCell id="QLzX7DmUl6CiqhcPxt4L-12" value="hotel_id" style="ellipse;whiteSpace=wrap;html=1;" vertex="1" parent="1">
          <mxGeometry x="40" y="1060" width="120" height="80" as="geometry" />
        </mxCell>
        <mxCell id="QLzX7DmUl6CiqhcPxt4L-14" value="hotel" style="rounded=1;whiteSpace=wrap;html=1;" vertex="1" parent="1">
          <mxGeometry x="650" y="910" width="120" height="60" as="geometry" />
        </mxCell>
        <mxCell id="QLzX7DmUl6CiqhcPxt4L-15" value="start_date" style="ellipse;whiteSpace=wrap;html=1;" vertex="1" parent="1">
          <mxGeometry x="70" y="1150" width="120" height="80" as="geometry" />
        </mxCell>
        <mxCell id="QLzX7DmUl6CiqhcPxt4L-16" value="duration" style="ellipse;whiteSpace=wrap;html=1;" vertex="1" parent="1">
          <mxGeometry x="190" y="1180" width="120" height="80" as="geometry" />
        </mxCell>
        <mxCell id="QLzX7DmUl6CiqhcPxt4L-17" value="reserve_date" style="ellipse;whiteSpace=wrap;html=1;" vertex="1" parent="1">
          <mxGeometry x="410" y="910" width="120" height="80" as="geometry" />
        </mxCell>
        <mxCell id="QLzX7DmUl6CiqhcPxt4L-18" value="&lt;u&gt;reserve_id&lt;/u&gt;" style="ellipse;whiteSpace=wrap;html=1;" vertex="1" parent="1">
          <mxGeometry x="120" y="920" width="120" height="80" as="geometry" />
        </mxCell>
        <mxCell id="QLzX7DmUl6CiqhcPxt4L-19" value="" style="ellipse;whiteSpace=wrap;html=1;" vertex="1" parent="1">
          <mxGeometry x="350" y="1180" width="120" height="80" as="geometry" />
        </mxCell>
        <mxCell id="QLzX7DmUl6CiqhcPxt4L-20" value="travel_date" style="ellipse;whiteSpace=wrap;html=1;" vertex="1" parent="1">
          <mxGeometry x="480" y="1160" width="120" height="80" as="geometry" />
        </mxCell>
        <mxCell id="QLzX7DmUl6CiqhcPxt4L-21" value="" style="endArrow=none;html=1;rounded=0;exitX=0;exitY=1;exitDx=0;exitDy=0;entryX=1;entryY=0;entryDx=0;entryDy=0;" edge="1" parent="1" source="QLzX7DmUl6CiqhcPxt4L-4" target="QLzX7DmUl6CiqhcPxt4L-15">
          <mxGeometry width="50" height="50" relative="1" as="geometry">
            <mxPoint x="340" y="1030" as="sourcePoint" />
            <mxPoint x="390" y="980" as="targetPoint" />
          </mxGeometry>
        </mxCell>
        <mxCell id="QLzX7DmUl6CiqhcPxt4L-22" value="" style="endArrow=none;html=1;rounded=0;entryX=0;entryY=0.5;entryDx=0;entryDy=0;exitX=1;exitY=0.75;exitDx=0;exitDy=0;" edge="1" parent="1" source="46MIYXv6gdJtNuSLJBxN-31" target="QLzX7DmUl6CiqhcPxt4L-17">
          <mxGeometry width="50" height="50" relative="1" as="geometry">
            <mxPoint x="340" y="1030" as="sourcePoint" />
            <mxPoint x="390" y="980" as="targetPoint" />
          </mxGeometry>
        </mxCell>
        <mxCell id="QLzX7DmUl6CiqhcPxt4L-23" value="" style="endArrow=none;html=1;rounded=0;exitX=1;exitY=0.5;exitDx=0;exitDy=0;entryX=0;entryY=0.25;entryDx=0;entryDy=0;" edge="1" parent="1" source="QLzX7DmUl6CiqhcPxt4L-12" target="QLzX7DmUl6CiqhcPxt4L-4">
          <mxGeometry width="50" height="50" relative="1" as="geometry">
            <mxPoint x="340" y="1030" as="sourcePoint" />
            <mxPoint x="180" y="1110" as="targetPoint" />
          </mxGeometry>
        </mxCell>
        <mxCell id="QLzX7DmUl6CiqhcPxt4L-24" value="" style="endArrow=none;html=1;rounded=0;exitX=1;exitY=0.5;exitDx=0;exitDy=0;entryX=0;entryY=0.75;entryDx=0;entryDy=0;" edge="1" parent="1" source="QLzX7DmUl6CiqhcPxt4L-18" target="46MIYXv6gdJtNuSLJBxN-31">
          <mxGeometry width="50" height="50" relative="1" as="geometry">
            <mxPoint x="340" y="1030" as="sourcePoint" />
            <mxPoint x="390" y="980" as="targetPoint" />
          </mxGeometry>
        </mxCell>
        <mxCell id="QLzX7DmUl6CiqhcPxt4L-25" value="" style="endArrow=none;html=1;rounded=0;entryX=1;entryY=1;entryDx=0;entryDy=0;exitX=0;exitY=0;exitDx=0;exitDy=0;" edge="1" parent="1" source="QLzX7DmUl6CiqhcPxt4L-20" target="QLzX7DmUl6CiqhcPxt4L-5">
          <mxGeometry width="50" height="50" relative="1" as="geometry">
            <mxPoint x="340" y="1030" as="sourcePoint" />
            <mxPoint x="390" y="980" as="targetPoint" />
          </mxGeometry>
        </mxCell>
        <mxCell id="QLzX7DmUl6CiqhcPxt4L-26" value="" style="endArrow=none;html=1;rounded=0;entryX=0.5;entryY=1;entryDx=0;entryDy=0;exitX=0.5;exitY=0;exitDx=0;exitDy=0;" edge="1" parent="1" source="QLzX7DmUl6CiqhcPxt4L-19" target="QLzX7DmUl6CiqhcPxt4L-5">
          <mxGeometry width="50" height="50" relative="1" as="geometry">
            <mxPoint x="340" y="1030" as="sourcePoint" />
            <mxPoint x="390" y="980" as="targetPoint" />
          </mxGeometry>
        </mxCell>
        <mxCell id="QLzX7DmUl6CiqhcPxt4L-27" value="" style="endArrow=none;html=1;rounded=0;exitX=0.5;exitY=1;exitDx=0;exitDy=0;entryX=0.5;entryY=0;entryDx=0;entryDy=0;" edge="1" parent="1" source="QLzX7DmUl6CiqhcPxt4L-4" target="QLzX7DmUl6CiqhcPxt4L-16">
          <mxGeometry width="50" height="50" relative="1" as="geometry">
            <mxPoint x="340" y="1030" as="sourcePoint" />
            <mxPoint x="390" y="980" as="targetPoint" />
          </mxGeometry>
        </mxCell>
        <mxCell id="QLzX7DmUl6CiqhcPxt4L-28" value="&lt;u&gt;hotel_id&lt;/u&gt;" style="ellipse;whiteSpace=wrap;html=1;" vertex="1" parent="1">
          <mxGeometry x="650" y="800" width="120" height="80" as="geometry" />
        </mxCell>
        <mxCell id="QLzX7DmUl6CiqhcPxt4L-29" value="" style="endArrow=none;html=1;rounded=0;entryX=0.5;entryY=0;entryDx=0;entryDy=0;exitX=0.5;exitY=1;exitDx=0;exitDy=0;" edge="1" parent="1" source="QLzX7DmUl6CiqhcPxt4L-28" target="QLzX7DmUl6CiqhcPxt4L-14">
          <mxGeometry width="50" height="50" relative="1" as="geometry">
            <mxPoint x="350" y="950" as="sourcePoint" />
            <mxPoint x="400" y="900" as="targetPoint" />
          </mxGeometry>
        </mxCell>
        <mxCell id="QLzX7DmUl6CiqhcPxt4L-32" value="bank_name" style="ellipse;whiteSpace=wrap;html=1;" vertex="1" parent="1">
          <mxGeometry x="100" y="560" width="120" height="80" as="geometry" />
        </mxCell>
        <mxCell id="QLzX7DmUl6CiqhcPxt4L-33" value="" style="endArrow=none;html=1;rounded=0;exitX=1;exitY=0;exitDx=0;exitDy=0;entryX=0;entryY=0.5;entryDx=0;entryDy=0;" edge="1" parent="1" source="QLzX7DmUl6CiqhcPxt4L-32" target="46MIYXv6gdJtNuSLJBxN-25">
          <mxGeometry width="50" height="50" relative="1" as="geometry">
            <mxPoint x="430" y="410" as="sourcePoint" />
            <mxPoint x="480" y="360" as="targetPoint" />
          </mxGeometry>
        </mxCell>
        <mxCell id="QLzX7DmUl6CiqhcPxt4L-34" value="&lt;u&gt;transaction_id&lt;/u&gt;" style="ellipse;whiteSpace=wrap;html=1;" vertex="1" parent="1">
          <mxGeometry x="410" y="620" width="120" height="80" as="geometry" />
        </mxCell>
        <mxCell id="QLzX7DmUl6CiqhcPxt4L-35" value="" style="endArrow=none;html=1;rounded=0;exitX=1;exitY=0.75;exitDx=0;exitDy=0;entryX=0;entryY=0;entryDx=0;entryDy=0;" edge="1" parent="1" source="46MIYXv6gdJtNuSLJBxN-25" target="QLzX7DmUl6CiqhcPxt4L-34">
          <mxGeometry width="50" height="50" relative="1" as="geometry">
            <mxPoint x="430" y="630" as="sourcePoint" />
            <mxPoint x="480" y="580" as="targetPoint" />
          </mxGeometry>
        </mxCell>
        <mxCell id="QLzX7DmUl6CiqhcPxt4L-36" value="bank_account" style="ellipse;whiteSpace=wrap;html=1;" vertex="1" parent="1">
          <mxGeometry x="440" y="520" width="120" height="80" as="geometry" />
        </mxCell>
        <mxCell id="QLzX7DmUl6CiqhcPxt4L-37" value="" style="endArrow=none;html=1;rounded=0;exitX=1;exitY=0.5;exitDx=0;exitDy=0;entryX=0;entryY=0.5;entryDx=0;entryDy=0;" edge="1" parent="1" source="46MIYXv6gdJtNuSLJBxN-25" target="QLzX7DmUl6CiqhcPxt4L-36">
          <mxGeometry width="50" height="50" relative="1" as="geometry">
            <mxPoint x="430" y="630" as="sourcePoint" />
            <mxPoint x="480" y="580" as="targetPoint" />
          </mxGeometry>
        </mxCell>
        <mxCell id="QLzX7DmUl6CiqhcPxt4L-38" value="state" style="ellipse;whiteSpace=wrap;html=1;" vertex="1" parent="1">
          <mxGeometry x="80" y="470" width="120" height="80" as="geometry" />
        </mxCell>
        <mxCell id="QLzX7DmUl6CiqhcPxt4L-39" value="" style="endArrow=none;html=1;rounded=0;exitX=1;exitY=0.5;exitDx=0;exitDy=0;entryX=0;entryY=0.25;entryDx=0;entryDy=0;" edge="1" parent="1" source="QLzX7DmUl6CiqhcPxt4L-38" target="46MIYXv6gdJtNuSLJBxN-25">
          <mxGeometry width="50" height="50" relative="1" as="geometry">
            <mxPoint x="430" y="590" as="sourcePoint" />
            <mxPoint x="480" y="540" as="targetPoint" />
          </mxGeometry>
        </mxCell>
        <mxCell id="QLzX7DmUl6CiqhcPxt4L-43" value="date" style="ellipse;whiteSpace=wrap;html=1;" vertex="1" parent="1">
          <mxGeometry x="400" y="430" width="120" height="80" as="geometry" />
        </mxCell>
        <mxCell id="QLzX7DmUl6CiqhcPxt4L-44" value="" style="endArrow=none;html=1;rounded=0;exitX=1;exitY=0;exitDx=0;exitDy=0;entryX=0;entryY=1;entryDx=0;entryDy=0;" edge="1" parent="1" source="46MIYXv6gdJtNuSLJBxN-25" target="QLzX7DmUl6CiqhcPxt4L-43">
          <mxGeometry width="50" height="50" relative="1" as="geometry">
            <mxPoint x="450" y="540" as="sourcePoint" />
            <mxPoint x="500" y="490" as="targetPoint" />
          </mxGeometry>
        </mxCell>
        <mxCell id="QLzX7DmUl6CiqhcPxt4L-45" value="type" style="ellipse;whiteSpace=wrap;html=1;" vertex="1" parent="1">
          <mxGeometry x="170" y="400" width="120" height="80" as="geometry" />
        </mxCell>
        <mxCell id="QLzX7DmUl6CiqhcPxt4L-46" value="" style="endArrow=none;html=1;rounded=0;exitX=1;exitY=1;exitDx=0;exitDy=0;" edge="1" parent="1" source="QLzX7DmUl6CiqhcPxt4L-45" target="46MIYXv6gdJtNuSLJBxN-25">
          <mxGeometry width="50" height="50" relative="1" as="geometry">
            <mxPoint x="450" y="680" as="sourcePoint" />
            <mxPoint x="500" y="630" as="targetPoint" />
          </mxGeometry>
        </mxCell>
        <mxCell id="QLzX7DmUl6CiqhcPxt4L-53" value="" style="rounded=1;whiteSpace=wrap;html=1;fillColor=none;" vertex="1" parent="1">
          <mxGeometry x="675" y="145" width="130" height="70" as="geometry" />
        </mxCell>
        <mxCell id="QLzX7DmUl6CiqhcPxt4L-54" value="discount_code" style="rounded=1;whiteSpace=wrap;html=1;" vertex="1" parent="1">
          <mxGeometry x="370" y="1470" width="120" height="60" as="geometry" />
        </mxCell>
        <mxCell id="QLzX7DmUl6CiqhcPxt4L-55" value="code" style="ellipse;whiteSpace=wrap;html=1;" vertex="1" parent="1">
          <mxGeometry x="470" y="1370" width="120" height="80" as="geometry" />
        </mxCell>
        <mxCell id="QLzX7DmUl6CiqhcPxt4L-56" value="expiration_date" style="ellipse;whiteSpace=wrap;html=1;" vertex="1" parent="1">
          <mxGeometry x="340" y="1350" width="120" height="80" as="geometry" />
        </mxCell>
        <mxCell id="QLzX7DmUl6CiqhcPxt4L-57" value="max_number_of_usage" style="ellipse;whiteSpace=wrap;html=1;" vertex="1" parent="1">
          <mxGeometry x="200" y="1380" width="140" height="80" as="geometry" />
        </mxCell>
        <mxCell id="QLzX7DmUl6CiqhcPxt4L-58" value="city" style="ellipse;whiteSpace=wrap;html=1;" vertex="1" parent="1">
          <mxGeometry x="520" y="1450" width="120" height="80" as="geometry" />
        </mxCell>
        <mxCell id="QLzX7DmUl6CiqhcPxt4L-59" value="service_type" style="ellipse;whiteSpace=wrap;html=1;" vertex="1" parent="1">
          <mxGeometry x="170" y="1470" width="120" height="80" as="geometry" />
        </mxCell>
        <mxCell id="QLzX7DmUl6CiqhcPxt4L-60" value="" style="triangle;whiteSpace=wrap;html=1;rotation=90;" vertex="1" parent="1">
          <mxGeometry x="400" y="1590" width="60" height="80" as="geometry" />
        </mxCell>
        <mxCell id="QLzX7DmUl6CiqhcPxt4L-61" value="constant_discount" style="rounded=1;whiteSpace=wrap;html=1;" vertex="1" parent="1">
          <mxGeometry x="460" y="1680" width="120" height="60" as="geometry" />
        </mxCell>
        <mxCell id="QLzX7DmUl6CiqhcPxt4L-62" value="percent_discount" style="rounded=1;whiteSpace=wrap;html=1;" vertex="1" parent="1">
          <mxGeometry x="280" y="1680" width="120" height="60" as="geometry" />
        </mxCell>
        <mxCell id="QLzX7DmUl6CiqhcPxt4L-63" value="amount" style="ellipse;whiteSpace=wrap;html=1;" vertex="1" parent="1">
          <mxGeometry x="460" y="1770" width="120" height="80" as="geometry" />
        </mxCell>
        <mxCell id="QLzX7DmUl6CiqhcPxt4L-64" value="percentage" style="ellipse;whiteSpace=wrap;html=1;" vertex="1" parent="1">
          <mxGeometry x="280" y="1770" width="120" height="80" as="geometry" />
        </mxCell>
        <mxCell id="QLzX7DmUl6CiqhcPxt4L-65" value="" style="endArrow=none;html=1;rounded=0;exitX=0.5;exitY=1;exitDx=0;exitDy=0;entryX=0;entryY=0.5;entryDx=0;entryDy=0;" edge="1" parent="1" source="QLzX7DmUl6CiqhcPxt4L-54" target="QLzX7DmUl6CiqhcPxt4L-60">
          <mxGeometry width="50" height="50" relative="1" as="geometry">
            <mxPoint x="410" y="1560" as="sourcePoint" />
            <mxPoint x="460" y="1510" as="targetPoint" />
          </mxGeometry>
        </mxCell>
        <mxCell id="QLzX7DmUl6CiqhcPxt4L-66" value="" style="endArrow=none;html=1;rounded=0;exitX=0.5;exitY=1;exitDx=0;exitDy=0;entryX=0.75;entryY=0;entryDx=0;entryDy=0;" edge="1" parent="1" source="QLzX7DmUl6CiqhcPxt4L-60" target="QLzX7DmUl6CiqhcPxt4L-62">
          <mxGeometry width="50" height="50" relative="1" as="geometry">
            <mxPoint x="410" y="1560" as="sourcePoint" />
            <mxPoint x="460" y="1510" as="targetPoint" />
          </mxGeometry>
        </mxCell>
        <mxCell id="QLzX7DmUl6CiqhcPxt4L-67" value="" style="endArrow=none;html=1;rounded=0;exitX=0.5;exitY=0;exitDx=0;exitDy=0;entryX=0.25;entryY=0;entryDx=0;entryDy=0;" edge="1" parent="1" source="QLzX7DmUl6CiqhcPxt4L-60" target="QLzX7DmUl6CiqhcPxt4L-61">
          <mxGeometry width="50" height="50" relative="1" as="geometry">
            <mxPoint x="410" y="1560" as="sourcePoint" />
            <mxPoint x="460" y="1510" as="targetPoint" />
          </mxGeometry>
        </mxCell>
        <mxCell id="QLzX7DmUl6CiqhcPxt4L-68" value="" style="endArrow=none;html=1;rounded=0;entryX=0.5;entryY=1;entryDx=0;entryDy=0;exitX=0.5;exitY=0;exitDx=0;exitDy=0;" edge="1" parent="1" source="QLzX7DmUl6CiqhcPxt4L-64" target="QLzX7DmUl6CiqhcPxt4L-62">
          <mxGeometry width="50" height="50" relative="1" as="geometry">
            <mxPoint x="410" y="1590" as="sourcePoint" />
            <mxPoint x="460" y="1540" as="targetPoint" />
          </mxGeometry>
        </mxCell>
        <mxCell id="QLzX7DmUl6CiqhcPxt4L-69" value="" style="endArrow=none;html=1;rounded=0;exitX=0.5;exitY=1;exitDx=0;exitDy=0;entryX=0.5;entryY=0;entryDx=0;entryDy=0;" edge="1" parent="1" source="QLzX7DmUl6CiqhcPxt4L-61" target="QLzX7DmUl6CiqhcPxt4L-63">
          <mxGeometry width="50" height="50" relative="1" as="geometry">
            <mxPoint x="500" y="1790" as="sourcePoint" />
            <mxPoint x="460" y="1730" as="targetPoint" />
          </mxGeometry>
        </mxCell>
        <mxCell id="QLzX7DmUl6CiqhcPxt4L-70" value="min_cost" style="ellipse;whiteSpace=wrap;html=1;" vertex="1" parent="1">
          <mxGeometry x="600" y="1760" width="120" height="80" as="geometry" />
        </mxCell>
        <mxCell id="QLzX7DmUl6CiqhcPxt4L-71" value="" style="endArrow=none;html=1;rounded=0;entryX=1;entryY=1;entryDx=0;entryDy=0;exitX=0;exitY=0;exitDx=0;exitDy=0;" edge="1" parent="1" source="QLzX7DmUl6CiqhcPxt4L-70" target="QLzX7DmUl6CiqhcPxt4L-61">
          <mxGeometry width="50" height="50" relative="1" as="geometry">
            <mxPoint x="410" y="1780" as="sourcePoint" />
            <mxPoint x="460" y="1730" as="targetPoint" />
          </mxGeometry>
        </mxCell>
        <mxCell id="QLzX7DmUl6CiqhcPxt4L-75" value="&lt;u&gt;discount_code_id&lt;/u&gt;" style="ellipse;whiteSpace=wrap;html=1;" vertex="1" parent="1">
          <mxGeometry x="510" y="1550" width="120" height="80" as="geometry" />
        </mxCell>
        <mxCell id="QLzX7DmUl6CiqhcPxt4L-76" value="" style="endArrow=none;html=1;rounded=0;exitX=1;exitY=0.25;exitDx=0;exitDy=0;entryX=0;entryY=0.5;entryDx=0;entryDy=0;" edge="1" parent="1" source="QLzX7DmUl6CiqhcPxt4L-54" target="QLzX7DmUl6CiqhcPxt4L-58">
          <mxGeometry width="50" height="50" relative="1" as="geometry">
            <mxPoint x="410" y="1460" as="sourcePoint" />
            <mxPoint x="460" y="1410" as="targetPoint" />
          </mxGeometry>
        </mxCell>
        <mxCell id="QLzX7DmUl6CiqhcPxt4L-77" value="" style="endArrow=none;html=1;rounded=0;exitX=0.75;exitY=0;exitDx=0;exitDy=0;entryX=0;entryY=1;entryDx=0;entryDy=0;" edge="1" parent="1" source="QLzX7DmUl6CiqhcPxt4L-54" target="QLzX7DmUl6CiqhcPxt4L-55">
          <mxGeometry width="50" height="50" relative="1" as="geometry">
            <mxPoint x="410" y="1460" as="sourcePoint" />
            <mxPoint x="460" y="1410" as="targetPoint" />
          </mxGeometry>
        </mxCell>
        <mxCell id="QLzX7DmUl6CiqhcPxt4L-78" value="" style="endArrow=none;html=1;rounded=0;exitX=0.25;exitY=0;exitDx=0;exitDy=0;entryX=0.5;entryY=1;entryDx=0;entryDy=0;" edge="1" parent="1" source="QLzX7DmUl6CiqhcPxt4L-54" target="QLzX7DmUl6CiqhcPxt4L-56">
          <mxGeometry width="50" height="50" relative="1" as="geometry">
            <mxPoint x="410" y="1460" as="sourcePoint" />
            <mxPoint x="460" y="1410" as="targetPoint" />
          </mxGeometry>
        </mxCell>
        <mxCell id="QLzX7DmUl6CiqhcPxt4L-79" value="" style="endArrow=none;html=1;rounded=0;exitX=0;exitY=0;exitDx=0;exitDy=0;entryX=1;entryY=1;entryDx=0;entryDy=0;" edge="1" parent="1" source="QLzX7DmUl6CiqhcPxt4L-54" target="QLzX7DmUl6CiqhcPxt4L-57">
          <mxGeometry width="50" height="50" relative="1" as="geometry">
            <mxPoint x="410" y="1460" as="sourcePoint" />
            <mxPoint x="460" y="1410" as="targetPoint" />
          </mxGeometry>
        </mxCell>
        <mxCell id="QLzX7DmUl6CiqhcPxt4L-80" value="" style="endArrow=none;html=1;rounded=0;exitX=1;exitY=0.5;exitDx=0;exitDy=0;entryX=0;entryY=0.5;entryDx=0;entryDy=0;" edge="1" parent="1" source="QLzX7DmUl6CiqhcPxt4L-59" target="QLzX7DmUl6CiqhcPxt4L-54">
          <mxGeometry width="50" height="50" relative="1" as="geometry">
            <mxPoint x="410" y="1460" as="sourcePoint" />
            <mxPoint x="460" y="1410" as="targetPoint" />
          </mxGeometry>
        </mxCell>
        <mxCell id="QLzX7DmUl6CiqhcPxt4L-81" value="" style="endArrow=none;html=1;rounded=0;exitX=1;exitY=1;exitDx=0;exitDy=0;entryX=0;entryY=0;entryDx=0;entryDy=0;" edge="1" parent="1" source="QLzX7DmUl6CiqhcPxt4L-54" target="QLzX7DmUl6CiqhcPxt4L-75">
          <mxGeometry width="50" height="50" relative="1" as="geometry">
            <mxPoint x="410" y="1460" as="sourcePoint" />
            <mxPoint x="460" y="1410" as="targetPoint" />
          </mxGeometry>
        </mxCell>
        <mxCell id="QLzX7DmUl6CiqhcPxt4L-82" value="state" style="ellipse;whiteSpace=wrap;html=1;" vertex="1" parent="1">
          <mxGeometry x="220" y="1550" width="120" height="80" as="geometry" />
        </mxCell>
        <mxCell id="QLzX7DmUl6CiqhcPxt4L-83" value="" style="endArrow=none;html=1;rounded=0;exitX=1;exitY=0;exitDx=0;exitDy=0;entryX=0;entryY=1;entryDx=0;entryDy=0;" edge="1" parent="1" source="QLzX7DmUl6CiqhcPxt4L-82" target="QLzX7DmUl6CiqhcPxt4L-54">
          <mxGeometry width="50" height="50" relative="1" as="geometry">
            <mxPoint x="410" y="1560" as="sourcePoint" />
            <mxPoint x="460" y="1510" as="targetPoint" />
          </mxGeometry>
        </mxCell>
        <mxCell id="QLzX7DmUl6CiqhcPxt4L-84" value="ticket" style="rounded=1;whiteSpace=wrap;html=1;" vertex="1" parent="1">
          <mxGeometry x="150" y="2240" width="120" height="60" as="geometry" />
        </mxCell>
        <mxCell id="QLzX7DmUl6CiqhcPxt4L-85" value="message" style="ellipse;whiteSpace=wrap;html=1;" vertex="1" parent="1">
          <mxGeometry x="300" y="2220" width="120" height="80" as="geometry" />
        </mxCell>
        <mxCell id="QLzX7DmUl6CiqhcPxt4L-86" value="priority" style="ellipse;whiteSpace=wrap;html=1;" vertex="1" parent="1">
          <mxGeometry x="200" y="2330" width="120" height="80" as="geometry" />
        </mxCell>
        <mxCell id="QLzX7DmUl6CiqhcPxt4L-87" value="type" style="ellipse;whiteSpace=wrap;html=1;" vertex="1" parent="1">
          <mxGeometry x="60" y="2320" width="120" height="80" as="geometry" />
        </mxCell>
        <mxCell id="QLzX7DmUl6CiqhcPxt4L-88" value="SMS" style="rounded=1;whiteSpace=wrap;html=1;" vertex="1" parent="1">
          <mxGeometry x="570" y="2360" width="120" height="60" as="geometry" />
        </mxCell>
        <mxCell id="QLzX7DmUl6CiqhcPxt4L-89" value="type" style="ellipse;whiteSpace=wrap;html=1;" vertex="1" parent="1">
          <mxGeometry x="470" y="2250" width="120" height="80" as="geometry" />
        </mxCell>
        <mxCell id="QLzX7DmUl6CiqhcPxt4L-90" value="content" style="ellipse;whiteSpace=wrap;html=1;" vertex="1" parent="1">
          <mxGeometry x="675" y="2260" width="120" height="80" as="geometry" />
        </mxCell>
        <mxCell id="QLzX7DmUl6CiqhcPxt4L-91" value="client_id" style="ellipse;whiteSpace=wrap;html=1;" vertex="1" parent="1">
          <mxGeometry x="410" y="2345" width="120" height="80" as="geometry" />
        </mxCell>
        <mxCell id="QLzX7DmUl6CiqhcPxt4L-92" value="search_history" style="rounded=1;whiteSpace=wrap;html=1;" vertex="1" parent="1">
          <mxGeometry x="310" y="2520" width="120" height="60" as="geometry" />
        </mxCell>
        <mxCell id="QLzX7DmUl6CiqhcPxt4L-93" value="client_id" style="ellipse;whiteSpace=wrap;html=1;" vertex="1" parent="1">
          <mxGeometry x="160" y="2580" width="120" height="80" as="geometry" />
        </mxCell>
        <mxCell id="QLzX7DmUl6CiqhcPxt4L-94" value="searched_trip_id" style="ellipse;whiteSpace=wrap;html=1;" vertex="1" parent="1">
          <mxGeometry x="330" y="2610" width="120" height="80" as="geometry" />
        </mxCell>
        <mxCell id="QLzX7DmUl6CiqhcPxt4L-95" value="" style="rounded=1;whiteSpace=wrap;html=1;fillColor=none;" vertex="1" parent="1">
          <mxGeometry x="305" y="2515" width="130" height="70" as="geometry" />
        </mxCell>
        <mxCell id="QLzX7DmUl6CiqhcPxt4L-96" value="" style="rounded=1;whiteSpace=wrap;html=1;fillColor=none;" vertex="1" parent="1">
          <mxGeometry x="565" y="2355" width="130" height="70" as="geometry" />
        </mxCell>
        <mxCell id="QLzX7DmUl6CiqhcPxt4L-97" value="ticket_id" style="ellipse;whiteSpace=wrap;html=1;" vertex="1" parent="1">
          <mxGeometry x="10" y="2210" width="120" height="80" as="geometry" />
        </mxCell>
        <mxCell id="QLzX7DmUl6CiqhcPxt4L-98" value="" style="endArrow=none;html=1;rounded=0;entryX=0.25;entryY=0;entryDx=0;entryDy=0;exitX=1;exitY=1;exitDx=0;exitDy=0;" edge="1" parent="1" source="QLzX7DmUl6CiqhcPxt4L-89" target="QLzX7DmUl6CiqhcPxt4L-96">
          <mxGeometry width="50" height="50" relative="1" as="geometry">
            <mxPoint x="390" y="2430" as="sourcePoint" />
            <mxPoint x="440" y="2380" as="targetPoint" />
          </mxGeometry>
        </mxCell>
        <mxCell id="QLzX7DmUl6CiqhcPxt4L-99" value="" style="endArrow=none;html=1;rounded=0;exitX=0;exitY=0.5;exitDx=0;exitDy=0;entryX=1;entryY=0.5;entryDx=0;entryDy=0;" edge="1" parent="1" source="QLzX7DmUl6CiqhcPxt4L-96" target="QLzX7DmUl6CiqhcPxt4L-91">
          <mxGeometry width="50" height="50" relative="1" as="geometry">
            <mxPoint x="390" y="2430" as="sourcePoint" />
            <mxPoint x="440" y="2380" as="targetPoint" />
          </mxGeometry>
        </mxCell>
        <mxCell id="QLzX7DmUl6CiqhcPxt4L-100" value="" style="endArrow=none;html=1;rounded=0;exitX=1;exitY=0.5;exitDx=0;exitDy=0;entryX=0;entryY=0.5;entryDx=0;entryDy=0;" edge="1" parent="1" source="QLzX7DmUl6CiqhcPxt4L-84" target="QLzX7DmUl6CiqhcPxt4L-85">
          <mxGeometry width="50" height="50" relative="1" as="geometry">
            <mxPoint x="390" y="2430" as="sourcePoint" />
            <mxPoint x="440" y="2380" as="targetPoint" />
          </mxGeometry>
        </mxCell>
        <mxCell id="QLzX7DmUl6CiqhcPxt4L-101" value="" style="endArrow=none;html=1;rounded=0;exitX=0.75;exitY=1;exitDx=0;exitDy=0;entryX=0.5;entryY=0;entryDx=0;entryDy=0;" edge="1" parent="1" source="QLzX7DmUl6CiqhcPxt4L-84" target="QLzX7DmUl6CiqhcPxt4L-86">
          <mxGeometry width="50" height="50" relative="1" as="geometry">
            <mxPoint x="390" y="2430" as="sourcePoint" />
            <mxPoint x="440" y="2380" as="targetPoint" />
          </mxGeometry>
        </mxCell>
        <mxCell id="QLzX7DmUl6CiqhcPxt4L-102" value="" style="endArrow=none;html=1;rounded=0;exitX=0.25;exitY=1;exitDx=0;exitDy=0;entryX=1;entryY=0;entryDx=0;entryDy=0;" edge="1" parent="1" source="QLzX7DmUl6CiqhcPxt4L-84" target="QLzX7DmUl6CiqhcPxt4L-87">
          <mxGeometry width="50" height="50" relative="1" as="geometry">
            <mxPoint x="390" y="2430" as="sourcePoint" />
            <mxPoint x="440" y="2380" as="targetPoint" />
          </mxGeometry>
        </mxCell>
        <mxCell id="QLzX7DmUl6CiqhcPxt4L-103" value="" style="endArrow=none;html=1;rounded=0;exitX=0;exitY=0.25;exitDx=0;exitDy=0;entryX=1;entryY=0.5;entryDx=0;entryDy=0;" edge="1" parent="1" source="QLzX7DmUl6CiqhcPxt4L-84" target="QLzX7DmUl6CiqhcPxt4L-97">
          <mxGeometry width="50" height="50" relative="1" as="geometry">
            <mxPoint x="390" y="2430" as="sourcePoint" />
            <mxPoint x="440" y="2380" as="targetPoint" />
          </mxGeometry>
        </mxCell>
        <mxCell id="QLzX7DmUl6CiqhcPxt4L-104" value="" style="endArrow=none;html=1;rounded=0;exitX=0;exitY=1;exitDx=0;exitDy=0;" edge="1" parent="1" source="QLzX7DmUl6CiqhcPxt4L-90">
          <mxGeometry width="50" height="50" relative="1" as="geometry">
            <mxPoint x="390" y="2430" as="sourcePoint" />
            <mxPoint x="663" y="2355" as="targetPoint" />
          </mxGeometry>
        </mxCell>
        <mxCell id="QLzX7DmUl6CiqhcPxt4L-106" value="" style="endArrow=none;html=1;rounded=0;exitX=0;exitY=0.75;exitDx=0;exitDy=0;entryX=1;entryY=0;entryDx=0;entryDy=0;" edge="1" parent="1" source="QLzX7DmUl6CiqhcPxt4L-95" target="QLzX7DmUl6CiqhcPxt4L-93">
          <mxGeometry width="50" height="50" relative="1" as="geometry">
            <mxPoint x="390" y="2430" as="sourcePoint" />
            <mxPoint x="440" y="2380" as="targetPoint" />
          </mxGeometry>
        </mxCell>
        <mxCell id="QLzX7DmUl6CiqhcPxt4L-107" value="" style="endArrow=none;html=1;rounded=0;exitX=0.5;exitY=1;exitDx=0;exitDy=0;entryX=0.5;entryY=0;entryDx=0;entryDy=0;" edge="1" parent="1" source="QLzX7DmUl6CiqhcPxt4L-95" target="QLzX7DmUl6CiqhcPxt4L-94">
          <mxGeometry width="50" height="50" relative="1" as="geometry">
            <mxPoint x="390" y="2430" as="sourcePoint" />
            <mxPoint x="440" y="2380" as="targetPoint" />
          </mxGeometry>
        </mxCell>
        <mxCell id="QLzX7DmUl6CiqhcPxt4L-108" value="" style="rounded=1;whiteSpace=wrap;html=1;fillColor=none;" vertex="1" parent="1">
          <mxGeometry x="625" y="395" width="130" height="70" as="geometry" />
        </mxCell>
      </root>
    </mxGraphModel>
  </diagram>
</mxfile>
